<?xml version="1.0" standalone="no"?>
<!DOCTYPE svg PUBLIC "-//W3C//DTD SVG 20010904//EN"
 "http://www.w3.org/TR/2001/REC-SVG-20010904/DTD/svg10.dtd">
<svg version="1.0" xmlns="http://www.w3.org/2000/svg"
 width="512.000000pt" height="512.000000pt" viewBox="0 0 512.000000 512.000000"
 preserveAspectRatio="xMidYMid meet">
<metadata>
Created by potrace 1.11, written by Peter Selinger 2001-2013
</metadata>
<g transform="translate(0.000000,512.000000) scale(0.100000,-0.100000)"
fill="#000000" stroke="none">
<path d="M0 2970 l0 -2150 2560 0 2560 0 0 2150 0 2150 -2560 0 -2560 0 0
-2150z m4147 495 c129 -30 241 -91 336 -183 53 -53 125 -148 116 -156 -19 -16
-283 -196 -288 -196 -4 0 -15 16 -25 35 -46 86 -159 158 -275 176 -225 34
-408 -91 -476 -325 -22 -75 -22 -230 0 -310 36 -135 128 -251 242 -304 52 -24
69 -27 168 -27 102 0 115 2 175 31 82 39 123 74 157 133 15 25 28 48 29 50 2
2 73 -38 158 -89 l156 -92 -27 -51 c-146 -268 -611 -408 -933 -280 -100 40
-176 89 -257 166 -90 86 -131 140 -184 246 -206 411 -46 910 356 1114 62 31
170 64 250 77 77 11 240 4 322 -15z m-2428 -738 c151 -413 277 -756 281 -760
4 -4 22 51 41 123 27 104 37 130 49 126 8 -3 47 -17 85 -30 56 -20 89 -26 164
-26 120 0 169 20 208 87 52 90 55 115 60 696 l5 537 189 0 189 0 0 -458 c0
-628 -15 -787 -86 -939 -57 -121 -189 -216 -344 -249 -156 -32 -378 -16 -480
36 -50 26 -53 25 -46 -5 l6 -25 -194 0 -193 0 -64 185 -64 185 -251 0 -252 0
-63 -185 -64 -185 -192 0 c-106 0 -193 3 -193 6 0 3 134 372 297 820 l297 814
170 0 171 0 274 -753z"/>
<path d="M1250 2968 c-12 -35 -55 -161 -95 -280 l-74 -218 190 0 190 0 -7 23
c-43 137 -176 537 -178 537 -2 0 -14 -28 -26 -62z"/>
</g>
</svg>
