<?xml version="1.0" encoding="utf-8"?>
<!-- Generator: Adobe Illustrator 23.0.1, SVG Export Plug-In . SVG Version: 6.00 Build 0)  -->
<svg version="1.1" id="Contours" xmlns="http://www.w3.org/2000/svg" xmlns:xlink="http://www.w3.org/1999/xlink" x="0px" y="0px"
	 viewBox="0 0 876.6 500.6" style="enable-background:new 0 0 876.6 500.6;" xml:space="preserve">
<path d="M513.7,227c-14,21.8-26.4,44.6-37.1,68.2c-3.9,8.6-9.2,18.6-18.6,19.4c-8.7,0.8-16-7.6-17.4-16.2
	c-1.4-8.6,1.5-17.3,4.2-25.5c8-24.5,14.7-49.5,20.1-74.7c-17.4,11-23.7,33.1-27.3,53.3c-3.7,20.3-6.8,42.2-20.9,57.1
	c-1.3,1.4-2.7,2.7-4.6,3.2c-3.8,1.1-7.7-1.9-9.1-5.6c-1.4-3.6-0.9-7.7-0.3-11.6c2.8-19,6.5-38,11.2-56.6c-7.1,0.6-14.6,1.1-20.9-2.2
	c-6.3-3.3-10.2-12.1-5.9-17.8c4.3-5.8,13.2-4.6,19.9-7.2c11.8-4.5,15.2-19.3,16.9-31.8c3.7-26.7,7.3-53.5,11-80.2
	c1.1-8.4,2.6-17.3,8.5-23.3c6-6,18-6.2,21.4,1.5c1.4,3.2,1,6.8,0.6,10.2c-2.5,20.7-5,41.4-7.4,62.2c9.1-26,18.2-52,27.4-78
	c2.5-7.1,5.2-14.6,10.6-19.8s14.6-7.5,20.7-3c7.4,5.5,6.3,16.6,4.4,25.6c-8.9,43.1-17.7,86.2-26.6,129.3
	c8.1-11.1,18.4-20.5,30.2-27.6c11.6-6.9,28.3-10.7,37.3-0.7c6,6.7,5.9,16.7,4.9,25.6c-3.9,35.8-15.6,70.1-27.3,104.2
	c-1.9,5.7-4,11.6-8.4,15.7c-4.3,4.1-11.7,5.8-16.3,2c-5.5-4.5-4.2-13.1-2.4-20.1c8.5-32.2,16.9-64.4,25.4-96.6
	C527.1,207.9,519.7,217.8,513.7,227z"/>
<path d="M638.2,174.2c10.6,23.9,15.9,50.2,15.4,76.3c5-7.2,4.4-16.9,7.6-25c3.3-8.4,10.3-14.6,17.1-20.5
	c11.7-10.2,23.9-20.7,38.8-24.9c7.6-2.1,16.1-2.4,22.9,1.6c7.5,4.4,11.4,13.4,12,22.1c0.6,8.7-1.6,17.3-3.7,25.8
	c7.1-8.5,12.5-18.5,15.7-29.1c1.7-5.5,2.9-11.4,6.7-15.7c4.7-5.3,13.1-6.9,19.4-3.7c6.3,3.2,10,10.9,8.5,17.8
	c-1.6,7.4-8.4,14.5-5.5,21.5c16.5-16.2,33.2-32.8,44.8-52.8c4.1-7.1,7.8-15,14.4-19.8c6.6-4.9,17.5-5.3,22,1.6
	c3.1,4.7,2.2,10.9,1.1,16.5c-19.2,102-36.7,204.3-52.5,306.9c-1.7,11.1-5.2,24.3-16,27.4c-6.1,1.8-13.3-1-16.6-6.5
	c-3.7-6.1-2.6-13.9-1.3-21c15.5-83.8,30.2-167.8,44.3-251.9c-6,5.7-11.9,11.4-17.9,17.1c-6.3,6.1-12.9,12.3-21.1,15.4
	c-8.2,3.1-18.5,2.4-24.4-4.1c-1.2-1.4-3.5-0.4-5,0.7c-14.6,10.2-26.7,23.8-35.3,39.4c-3,5.5-11.3,6.3-16.4,2.6
	c-5.1-3.7-7.1-10.4-6.9-16.6s2.4-12.2,4.3-18.2c4.7-14.8,7.9-30.1,9.5-45.6c-14.4,7.3-25.9,20.3-31.4,35.5
	c-2.6,7.2-3.9,14.8-6.9,21.9c-3,7.1-8.1,13.8-15.4,16.1c-7.3,2.3-16.7-1.6-18.2-9.1c-7.6,12.3-15.7,25-28,32.6
	c-12.3,7.6-30.3,8.1-39.8-2.7c-8.9-10-7.6-25.3-4.8-38.4c6.7-31.2,18.9-61.3,35.9-88.3c2.5-4-0.7-9.3,0.4-13.9c1.3-6,9.6-8,15.1-5.2
	C632.6,162.7,635.7,168.6,638.2,174.2 M604.6,275.9c-0.3,1.5-0.5,3.1,0.2,4.4c0.7,1.3,2.8,1.9,3.7,0.7c12.6-16.9,18-39.1,14.6-59.9
	c-0.1-0.7-0.3-1.4-0.9-1.7c-1-0.5-2,0.8-2.4,1.9C613.3,239.1,608.2,257.4,604.6,275.9z"/>
<path d="M356.1,186.9c-7.4,4.1-12.1,11.6-16.3,18.9c-18.9,32.6-34.6,67.1-46.7,102.8c-3,8.9-7.7,19.5-17,20.6
	c-8.4,1-15.6-7.2-16.9-15.6c-1.3-8.4,1.6-16.8,4.2-24.9c6.9-21.7,11.4-44.2,13.4-66.9c0.8-8.5,1.3-17.5,6.2-24.5
	c4.8-7,15.7-10.7,22.1-5c4.4,3.9,10.4-2.4,13.2-7.5c5.5-9.8,12.9-18.5,21.7-25.6c7.8-6.3,17.4-11.4,27.4-10.8
	c10,0.7,20,8.9,19.5,18.9c-2.2,48.8-10.5,97.4-24.7,144.2c-2,6.4-5.5,14.1-12.2,14.4c-4.9,0.3-9.2-4-10.7-8.7s-0.7-9.8,0-14.7
	C344.7,264,350.4,225.4,356.1,186.9z"/>
<path d="M182.3,224.7c-3.4,1.3-7.3,3-8.6,6.4c-10.1,27.3-20.3,54.7-30.4,82c-3,8-7.2,17.1-15.6,18.7c-4.2,0.8-8.8-0.8-11.6-4
	c-5.7-6.5-3.2-16.5-0.4-24.7c19.3-56.2,38.5-112.4,57.8-168.6c13.2-38.6,26.7-77.7,49.1-111.9c5-7.7,10.8-15.4,18.9-19.7
	s19.2-4.3,25.6,2.3c5.3,5.4,6.2,13.6,6.5,21.1c1.6,38.9-6.4,77.5-14.2,115.7c-12.4,59.7-24.7,119.5-37.1,179.2
	c-1.7,8.4-5.3,18.5-13.8,19.4c-6.3,0.7-12-4.8-13.7-10.9c-1.7-6.1-0.5-12.6,0.7-18.9c6.4-32.8,12.7-65.7,19.1-98.5
	C203.9,216.5,193.1,220.6,182.3,224.7 M217.3,182.4c3.6-1.8,4.7-6.4,5.4-10.4c5.7-31.7,11.4-63.5,17.1-95.2
	c1.9-10.6,3.8-21.3,3.2-32c-22.3,36-34.9,76.9-47.4,117.4c-3,9.8-6,19.5-9,29.3C197.3,190.4,207.8,187.3,217.3,182.4z"/>
<path d="M0.7,219.3c-1.8-2.7,0.4-6.3,2.9-8.3c5.1-4,11.7-5.4,18.1-6.7c13.1-2.6,26.3-5.2,39.4-7.9c12.2-2.4,24.7-4.9,36.9-2.9
	c2.5,0.4,5.1,1.1,7.1,2.7c5.8,4.7,3.2,14.5-2.3,19.6c-2,1.9-4.4,3.4-7,4.3c-2.3,0.8-4.8,1-7.2,1.3c-19.1,2-38.1,3.9-57.2,5.9
	c-5.5,0.6-11.2,1.1-16.6,0.2S3.8,223.9,0.7,219.3z"/>
</svg>
